<?xml version="1.0" standalone="no"?>
<!DOCTYPE svg PUBLIC "-//W3C//DTD SVG 20010904//EN"
 "http://www.w3.org/TR/2001/REC-SVG-20010904/DTD/svg10.dtd">
<svg version="1.0" xmlns="http://www.w3.org/2000/svg"
 width="1080.000000pt" height="1080.000000pt" viewBox="0 0 1080.000000 1080.000000"
 preserveAspectRatio="xMidYMid meet">
<metadata>
Created by potrace 1.14, written by Peter Selinger 2001-2017
</metadata>
<g transform="translate(0.000000,1080.000000) scale(0.100000,-0.100000)"
fill="#000000" stroke="none">
<path d="M5140 10794 c-25 -2 -108 -8 -185 -14 -683 -52 -1415 -263 -2035
-587 -1600 -835 -2683 -2407 -2885 -4188 -62 -555 -37 -1156 71 -1690 33 -163
75 -339 83 -345 3 -3 8 -16 9 -30 2 -14 24 -89 48 -166 436 -1409 1445 -2591
2769 -3244 228 -113 450 -205 676 -280 231 -78 559 -163 728 -189 416 -65 340
-61 1006 -60 570 1 619 2 754 22 81 12 146 27 148 33 2 7 -28 50 -66 97 -362
443 -682 1061 -905 1747 -225 690 -356 1391 -451 2417 -5 56 -10 70 -21 66
-31 -12 -73 19 -99 70 -27 56 -34 149 -15 219 15 53 61 98 100 98 31 0 32 1
26 31 -3 17 -10 94 -16 172 -6 78 -13 157 -16 174 l-5 33 -47 -24 c-91 -46
-266 -96 -477 -137 -106 -21 -379 -18 -485 5 -101 22 -232 67 -315 108 -264
132 -498 384 -605 651 -159 398 -119 839 107 1180 70 106 284 315 448 439 162
122 601 428 612 427 5 0 35 -34 67 -75 33 -41 111 -126 175 -190 469 -474
1079 -772 1736 -849 169 -20 501 -20 669 0 307 36 594 116 905 252 27 12 -3
-270 -60 -563 -48 -248 -117 -775 -145 -1112 -6 -70 -9 -82 -23 -77 -119 37
-377 75 -569 83 -472 20 -927 -49 -1349 -203 -154 -56 -408 -187 -506 -260
l-88 -65 24 -33 c55 -73 65 -199 22 -282 -13 -27 -23 -50 -22 -51 25 -21 184
-114 332 -194 370 -200 541 -306 713 -444 297 -236 708 -656 1027 -1046 337
-413 560 -753 778 -1185 157 -310 429 -765 458 -765 7 0 78 43 158 96 900 595
1601 1443 2016 2439 78 186 196 532 198 580 1 18 5 31 8 29 15 -9 100 360 147
635 26 155 26 160 30 776 4 663 2 691 -48 992 -241 1434 -1098 2751 -2325
3570 -750 501 -1580 797 -2485 888 -145 15 -697 28 -800 19z m1092 -2189 c322
-43 647 -190 869 -393 l62 -58 -100 -46 c-296 -137 -585 -201 -913 -201 -342
1 -653 74 -952 224 -92 46 -246 140 -285 173 l-25 22 161 72 c273 122 505 190
719 211 143 14 343 12 464 -4z m-1393 -608 c75 -50 107 -167 68 -243 -31 -60
-114 -114 -177 -114 -36 0 -93 23 -125 51 -72 64 -86 185 -28 257 67 84 178
105 262 49z m816 -371 c56 -25 110 -81 132 -135 22 -52 20 -148 -5 -202 -24
-54 -84 -112 -137 -135 -92 -38 -221 -9 -289 66 -98 108 -84 290 29 376 77 58
184 71 270 30z m4150 -1956 c31 -69 63 -138 70 -155 148 -317 334 -729 331
-732 -1 -2 -18 30 -37 72 l-34 74 -112 1 c-124 0 -111 7 -126 -65 -3 -11 -5
-1 -6 23 l-1 42 -114 0 c-66 0 -117 -4 -121 -10 -3 -5 -28 -10 -56 -10 -37 0
-49 -4 -49 -15 0 -8 -4 -15 -10 -15 -5 0 -10 7 -10 15 0 13 -26 15 -170 15
-144 0 -170 -2 -170 -15 0 -8 -4 -15 -10 -15 -5 0 -10 7 -10 15 0 11 -12 15
-48 15 l-48 0 -90 -116 c-49 -63 -92 -125 -96 -137 -6 -20 -6 -20 -7 -2 0 12
139 200 332 451 183 237 377 490 432 562 54 72 100 130 101 129 2 -1 28 -58
59 -127z m-8175 -597 c125 -143 191 -236 176 -250 -2 -2 -11 13 -19 34 -28 64
-39 73 -96 73 -49 0 -51 -1 -52 -27 l-2 -28 -4 28 -4 27 -175 0 -174 0 -1 -27
-2 -28 -4 28 c-8 52 -41 33 -138 -79 -49 -58 -128 -144 -173 -192 l-84 -87 90
100 c114 126 321 371 420 497 43 53 82 97 87 97 6 0 75 -75 155 -166z m204
-313 c5 -17 4 -20 -2 -10 -5 8 -13 26 -16 40 -5 17 -4 20 2 10 5 -8 13 -26 16
-40z m8425 -85 c0 -5 -11 10 -24 35 -13 25 -24 50 -24 55 0 6 11 -10 24 -35
13 -25 24 -49 24 -55z m-8399 20 c0 -5 -5 -3 -10 5 -5 8 -10 20 -10 25 0 6 5
3 10 -5 5 -8 10 -19 10 -25z m20 -50 c0 -5 -5 -3 -10 5 -5 8 -10 20 -10 25 0
6 5 3 10 -5 5 -8 10 -19 10 -25z m20 -50 c0 -5 -5 -3 -10 5 -5 8 -10 20 -10
25 0 6 5 3 10 -5 5 -8 10 -19 10 -25z m6977 3 c-3 -7 -5 -2 -5 12 0 14 2 19 5
13 2 -7 2 -19 0 -25z m1442 -53 c0 -5 -6 1 -14 15 -8 14 -14 30 -14 35 0 6 6
-1 14 -15 8 -14 14 -29 14 -35z m-9449 -18 c0 -1 -53 -54 -117 -117 l-118
-115 115 118 c107 109 120 122 120 114z m9500 -92 c0 -5 -5 -3 -10 5 -5 8 -10
20 -10 25 0 6 5 3 10 -5 5 -8 10 -19 10 -25z m-8400 -20 c0 -5 -5 -3 -10 5 -5
8 -10 20 -10 25 0 6 5 3 10 -5 5 -8 10 -19 10 -25z m-1350 -128 c0 -2 -17 -19
-37 -38 l-38 -34 34 38 c33 34 41 42 41 34z m2643 -22 c-3 -9 -8 -14 -10 -11
-3 3 -2 9 2 15 9 16 15 13 8 -4z m7207 -50 c0 -5 -5 -3 -10 5 -5 8 -10 20 -10
25 0 6 5 3 10 -5 5 -8 10 -19 10 -25z m-9930 1 c0 -2 -8 -10 -17 -17 -16 -13
-17 -12 -4 4 13 16 21 21 21 13z m-50 -40 c0 -2 -8 -10 -17 -17 -16 -13 -17
-12 -4 4 13 16 21 21 21 13z m2703 -41 c-3 -9 -8 -14 -10 -11 -3 3 -2 9 2 15
9 16 15 13 8 -4z m-2943 -69 c0 -2 -8 -10 -17 -17 -16 -13 -17 -12 -4 4 13 16
21 21 21 13z"/>
<path d="M9404 5173 c3 -10 12 -60 22 -112 9 -53 20 -88 24 -80 4 8 12 48 19
89 7 41 14 85 17 98 4 20 1 22 -41 22 -39 0 -46 -3 -41 -17z"/>
</g>
</svg>
